<svg xmlns="http://www.w3.org/2000/svg" xmlns:xlink="http://www.w3.org/1999/xlink" version="1.1" x="0px" y="0px" viewBox="0 0 95 118.75" enable-background="new 0 0 95 95" xml:space="preserve"><path d="M47.5,6.345C24.807,6.345,6.346,24.806,6.346,47.5c0,22.692,18.461,41.155,41.154,41.155  c22.692,0,41.154-18.462,41.154-41.155C88.654,24.806,70.192,6.345,47.5,6.345z M23.479,15.126c0.05,0.448-0.046,1.078-0.046,1.078  s-0.276,1.103-0.305,1.448c-0.027,0.345-0.729,1.103-0.729,1.103l-0.965-0.551l-0.466-1.048  C21.777,16.447,22.615,15.769,23.479,15.126z M75.531,64.888c-0.12-0.322-0.367,0.234-0.567,0.593  c-0.239,0.132-0.481,0.262-0.726,0.39c0.551-1.488,1.035-3.019,1.446-4.587c0.218-0.097,0.433-0.194,0.646-0.293  c1.977-0.923,3.725-1.924,5.234-2.989c-0.293,1.268-0.639,2.51-1.033,3.725c-1.48,1.232-3.147,2.38-4.977,3.426  C75.559,65.039,75.553,64.946,75.531,64.888z M74.833,65.687c-0.009,0.01-0.017,0.021-0.024,0.029  c-0.119,0.119-0.496,0.512-0.832,0.844c0.066-0.175,0.133-0.349,0.199-0.524C74.396,65.92,74.615,65.804,74.833,65.687z   M24.95,20.478c-0.208-0.138-1.103-0.759-0.759-0.965c0.346-0.207,1.172-0.069,1.172-0.069l0.589-0.252  c-0.308,0.436-0.607,0.878-0.899,1.329C25.014,20.51,24.979,20.497,24.95,20.478z M30.878,16.41  c0.208-0.068,1.517-0.965,1.311-0.965c-0.207,0-1.172,0-1.172,0s-0.1-0.04-0.241-0.086c0.748-0.293,1.512-0.565,2.283-0.82  c-1.016,1.24-1.981,2.615-2.889,4.126c-0.375,0.626-0.736,1.271-1.084,1.929c0-0.255,0-0.98,0-1.15c0-0.207,0.828-1.999,0.828-1.999  S30.672,16.479,30.878,16.41z M48.777,87.805c1.027-0.789,2.006-2.526,2.891-5.127c0.943-0.082,1.881-0.192,2.809-0.33  c-1.52,2.763-3.234,4.651-5.064,5.433C49.201,87.791,48.989,87.798,48.777,87.805z M45.588,87.781  c-1.832-0.782-3.545-2.67-5.066-5.433c0.93,0.138,1.867,0.248,2.81,0.331c0.886,2.601,1.863,4.338,2.891,5.126  C46.01,87.798,45.799,87.791,45.588,87.781z M36.622,14.191c0.327-0.092,0.705-0.31,0.874-0.606  c0.055-0.096,0.088-0.192,0.109-0.286c0.559-0.121,1.121-0.235,1.688-0.336c-0.237,0.54-0.521,1.209-0.452,1.277  c0.075,0.075,0.356,0.393,0.5,0.556c-0.487,1.096-0.954,2.296-1.397,3.598c-0.869,0.152-1.73,0.325-2.581,0.519  c-0.077-0.224-0.151-0.396-0.21-0.435c-0.207-0.137-0.275-1.309-0.275-1.309s0.111-0.084,0.121-0.234  C35.516,15.959,36.058,15.042,36.622,14.191z M27.775,23.291c-0.459,1.036-0.889,2.103-1.285,3.2  c-1.209,0.438-2.383,0.916-3.52,1.432c0.063-0.414,0.179-0.887,0.463-1.171c0.482-0.483,1.172-1.31,1.517-1.517  c0.345-0.207,2.825-2.068,2.825-2.068V23.291z M28.121,24.82c0.207,0,1.24-0.068,1.24-0.276c0-0.206-0.551-0.896-0.551-0.896  l0.551-0.482c0,0,1.448-0.482,1.448-0.689c0-0.207,0.413-1.999,0.759-2.343c0.046-0.047,0.095-0.093,0.145-0.138  c0.285-0.088,0.57-0.173,0.857-0.257c0.113,0.35,0.176,1.38,0.238,1.566c0.014,0.039,0.002,0.131-0.026,0.254  c-0.204,0.529-0.401,1.065-0.592,1.612c-0.055,0.104-0.104,0.178-0.141,0.202c-0.206,0.138-0.964,0.621-0.964,0.621l-0.346,0.689  c0,0,0.234,0.119,0.434,0.354c-1.557,0.408-3.072,0.876-4.538,1.401c0.356-0.978,0.737-1.928,1.14-2.851v0.75  C27.775,24.338,27.914,24.82,28.121,24.82z M37.703,12.673c0.081-0.105,0.162-0.208,0.244-0.31c0.01-0.007,0.02-0.014,0.031-0.021  c0.483-0.275,0.896-0.896,1.311-1.034c0.413-0.138,2.826-1.464,2.826-1.464s0.055-0.006,0.105,0.016  c-0.418,0.523-0.826,1.11-1.225,1.757c-0.526,0.161-1.333,0.477-1.432,0.725c-0.039,0.097-0.121,0.282-0.218,0.5  c-0.577,0.1-1.149,0.211-1.72,0.333C37.654,12.996,37.654,12.824,37.703,12.673z M62.611,24.733  c-0.211-0.05-0.423-0.101-0.636-0.149c0.191-0.229,0.415-0.41,0.544-0.28C62.612,24.396,62.627,24.564,62.611,24.733z   M62.597,24.849c-0.028,0.168-0.079,0.323-0.11,0.386c-0.069,0.138-0.207,2.344-0.069,2.446c0.138,0.104-0.311-0.482,0.965,0.104  c0.292,0.134,0.552,0.228,0.776,0.297c0.049,0.188,0.094,0.378,0.141,0.568c-0.598,0.047-1.088,0.347-1.055,0.616  c0.018,0.14-0.098,0.385-0.215,0.592c-0.625-0.12-1.257-0.232-1.895-0.338c0.121-0.378,0.215-0.75,0.179-0.875  c-0.068-0.242-0.552-0.793-0.448-1.138c0.104-0.345,0.655-2.207,0.828-2.516c0.049-0.089,0.121-0.2,0.202-0.308  C62.131,24.738,62.364,24.792,62.597,24.849z M47.5,66.46c-0.79,0-1.574-0.011-2.354-0.032c-0.061-1.693-0.113-3.469-0.157-5.322  c0.833,0.017,1.669,0.026,2.511,0.026c0.841,0,1.678-0.009,2.51-0.026c-0.044,1.853-0.096,3.628-0.156,5.322  C49.074,66.449,48.29,66.46,47.5,66.46z M49.85,66.532c-0.068,1.88-0.144,3.66-0.228,5.327c-0.704,0.022-1.411,0.033-2.122,0.033  c-0.712,0-1.42-0.011-2.122-0.033c-0.084-1.667-0.161-3.447-0.228-5.327c0.779,0.021,1.563,0.031,2.35,0.031  S49.07,66.553,49.85,66.532z M7.172,47.5c0-0.112,0.004-0.224,0.005-0.337c0.048-0.022,0.101-0.044,0.157-0.067  c0.094,0.294,0.24,0.632,0.387,0.936c-0.223-0.065-0.402-0.131-0.544-0.197C7.176,47.723,7.172,47.612,7.172,47.5z M8.475,47.43  c-0.146-0.292-0.154-0.513-0.146-0.619c0.029-0.007,0.059-0.014,0.089-0.021c0.146,0.094,0.454,0.313,0.608,0.57  c0.093,0.155,0.367,0.604,0.66,1.088c-0.305-0.05-0.586-0.101-0.844-0.151C8.743,48.04,8.597,47.675,8.475,47.43z M34.808,24.338  l0.105-0.036c0.472-0.092,0.947-0.181,1.427-0.263c-0.396,1.679-0.746,3.437-1.051,5.261c-0.614,0.089-1.225,0.187-1.83,0.29  c-0.018-0.246-0.029-0.459-0.029-0.565c0-0.344,0.068-1.378-0.139-1.24s-1.379,1.24-1.379,1.24s-0.758-0.482-0.551-0.896  c0.207-0.413,0.138-0.965-0.068-1.171c-0.032-0.032-0.076-0.067-0.125-0.106c0.131-0.474,0.266-0.943,0.404-1.404  c0.396,0.362,0.961,0.82,0.961,0.82s0.758,0.414,1.033,0.069c0.276-0.345,0.759-1.035,0.689-1.241  c-0.049-0.148-0.131-0.401-0.125-0.635c0.22-0.045,0.441-0.091,0.662-0.134C34.802,24.333,34.808,24.338,34.808,24.338z   M42.293,9.946c0.02,0.08-0.012,0.22-0.178,0.468c-0.414,0.619-0.482,1.102-0.689,1.102c-0.042,0-0.142,0.021-0.271,0.056  C41.523,10.979,41.904,10.436,42.293,9.946z M51.533,12.227c0.01,0.027,0.018,0.056,0.027,0.084  c-0.025-0.003-0.051-0.005-0.076-0.006C51.5,12.28,51.517,12.254,51.533,12.227z M51.598,12.42c0.52,1.539,1.003,3.362,1.439,5.425  c-0.986-0.098-1.982-0.169-2.984-0.214c0.073-0.266,0.135-0.576,0.197-0.945c0.139-0.827,0.827-3.929,0.827-3.929  s0.137-0.069,0.339-0.351C51.477,12.411,51.537,12.415,51.598,12.42z M57.108,29.646c0.138-0.034,0.621,0.207,0.827,0  c0.129-0.128,0.296-0.309,0.43-0.419c0.105,0.013,0.213,0.027,0.318,0.041c0.189,0.258,0.501,0.798,0.527,0.932  c0.035,0.171,0.447,0.93,0.552,0.896c0.019-0.006,0.058-0.021,0.11-0.043c0.047,0.329,0.095,0.661,0.141,0.996  c-0.377,0.046-0.768,0.046-0.768,0.046s-0.553-0.517-0.621-0.689c-0.068-0.172-0.517-0.551-0.517-0.551s-0.482,1.413-0.689,1.723  c-0.206,0.311-0.999,1.138-1.103,1.207c-0.047,0.031-0.098,0.189-0.166,0.392c-0.214-0.016-0.428-0.031-0.643-0.045  c0.015-0.442-0.068-0.956-0.355-1.368c-0.104-1.335-0.221-2.642-0.354-3.916c0.688,0.059,1.371,0.125,2.047,0.2  C56.955,29.389,57.058,29.659,57.108,29.646z M39.014,61.975c-0.483-0.069-0.896-0.207-1.379-0.413  c-0.277-0.12-1.125-0.603-1.795-0.992c1.283,0.127,2.586,0.232,3.908,0.317c0.029,0.426,0.061,0.851,0.092,1.271  C39.623,62.09,39.318,62.019,39.014,61.975z M35.615,60.439c-0.386-0.225-0.67-0.394-0.67-0.394  c-0.163-0.49-0.242-0.679-0.402-0.838c-0.129-1.292-0.238-2.609-0.324-3.949c1.708,0.117,3.456,0.212,5.239,0.284  c0.07,1.782,0.165,3.531,0.282,5.238C38.34,60.69,36.963,60.576,35.615,60.439z M14.605,49.155c0.988,0.09,2.002,0.17,2.998,0.241  c0.018,0.512,0.042,1.021,0.072,1.529c-0.252,0.324-1.48,1.676-1.48,1.676s-0.689-0.138-1.104-0.689  c-0.413-0.551-0.551-0.758-0.551-1.172C14.541,50.507,14.563,49.795,14.605,49.155z M14.614,49.039  c0.034-0.451,0.077-0.849,0.134-0.988c0.137-0.345,1.033-1.309,1.379-1.309c0.232,0,0.909,0.125,1.45,0.101  c-0.003,0.218-0.006,0.438-0.006,0.658c0,0.596,0.011,1.19,0.03,1.784C16.533,49.206,15.536,49.124,14.614,49.039z M47.906,26.337  h1.379c0,0,0.217-0.199,0.465-0.42c0.035,0.827,0.068,1.679,0.1,2.55c-0.779-0.02-1.563-0.032-2.35-0.032s-1.57,0.012-2.35,0.032  c0.063-1.746,0.133-3.404,0.211-4.967c0.396-0.152,0.935-0.274,1.339-0.387c0.267-0.003,0.532-0.007,0.8-0.007  c0.711,0,1.418,0.012,2.122,0.034c0.017,0.352,0.034,0.711,0.052,1.071l-0.492-0.08l-1.689,0.276  C47.492,24.889,47.906,26.337,47.906,26.337z M51.477,34.403c0,0,0.313-0.167,0.6-0.346c0.346,0.013,0.689,0.027,1.032,0.043  c-0.024,0.138-0.038,0.247-0.038,0.303c0.006,0.276,0,1.103,0,1.103s0.971-1.172,1.178-1.103c0.138,0.045,0.613,0.275,0.936,0.258  c0.02,0.293,0.038,0.587,0.056,0.884c-0.302,0.239-0.617,0.437-0.729,0.477c-0.194,0.069-1.021,0.517-1.021,0.517  c1.104,0.689,0.802,1.792,0.802,1.792l-1.221,0.414c0,0-1.133-0.276-1.355,0.482c-0.012,0.039-0.024,0.077-0.037,0.115  c-0.486-0.011-0.975-0.018-1.465-0.024c-0.024-1.81-0.057-3.586-0.098-5.318c0.424,0.009,0.844,0.02,1.264,0.034  C51.438,34.25,51.477,34.403,51.477,34.403z M39.403,47.5c0-0.877,0.007-1.749,0.017-2.612c1.721-0.023,3.496-0.04,5.318-0.047  c-0.004,0.881-0.006,1.768-0.006,2.659c0,0.891,0.002,1.776,0.006,2.658c-1.822-0.008-3.598-0.024-5.318-0.047  C39.41,49.247,39.403,48.377,39.403,47.5z M33.221,34.722c-1.135,0.141-2.249,0.299-3.341,0.474  c0.003-0.139,0.041-0.278,0.171-0.311c0.276-0.068,1.586-0.275,1.861-0.344c0.276-0.069,1.447-0.758,1.586-0.552  C33.556,34.074,33.41,34.387,33.221,34.722z M44.885,34c-0.041,1.732-0.074,3.507-0.098,5.318c-1.767,0.022-3.51,0.068-5.225,0.135  c0.072-1.792,0.167-3.542,0.285-5.241C41.494,34.107,43.175,34.035,44.885,34z M39.854,34.105c0.126-1.818,0.278-3.579,0.452-5.27  c1.549-0.13,3.13-0.216,4.735-0.262c-0.06,1.718-0.112,3.495-0.155,5.322C43.186,33.931,41.507,34.001,39.854,34.105z   M39.458,39.458c-1.783,0.071-3.531,0.166-5.239,0.283c0.066-1.031,0.146-2.048,0.238-3.049c0.275-0.251,0.558-0.583,0.558-0.703  c0-0.109-0.189-0.664-0.37-1.168c0.006-0.053,0.012-0.106,0.018-0.159c1.648-0.183,3.344-0.331,5.078-0.442  C39.623,35.926,39.528,37.675,39.458,39.458z M32.878,36.47c0.413,0.276,0.896,0.506,1.103,0.529  c0.068,0.007,0.207-0.08,0.359-0.206c-0.088,0.974-0.164,1.96-0.228,2.955c-1.807,0.126-3.565,0.277-5.267,0.453  c0.053-0.629,0.113-1.253,0.179-1.872c0.077-0.029,1.31-0.479,1.509-0.412c0.207,0.07,0.828-0.918,0.828-0.918l-1.104-0.873  l-0.344-0.62c0,0-0.021-0.089-0.031-0.199c1.064-0.171,2.156-0.326,3.27-0.466c-0.254,0.437-0.551,0.873-0.551,0.873  S32.465,36.194,32.878,36.47z M26.535,39.917c0,0,0.759-0.965,1.034-1.172c0.228-0.169,1.055-0.339,1.346-0.395  c-0.065,0.617-0.124,1.237-0.177,1.861c-1.063,0.11-2.102,0.23-3.113,0.359C26.135,40.101,26.535,39.917,26.535,39.917z   M22.606,44.88c0.118-0.08,0.282-0.068,0.453-0.135c-0.007,0.177-0.014,0.353-0.021,0.53c-0.211,0.011-0.422,0.022-0.631,0.033  C22.475,45.092,22.543,44.922,22.606,44.88z M23.166,44.692c0.092-0.057,0.182-0.146,0.268-0.295  c0.275-0.483,0.827-2.206,1.586-3.171c0.162-0.207,0.322-0.382,0.479-0.534c1.045-0.135,2.123-0.259,3.23-0.374  c-0.129,1.554-0.214,3.132-0.258,4.727c-1.852,0.065-3.633,0.14-5.326,0.225C23.15,45.077,23.158,44.884,23.166,44.692z   M28.836,40.306c1.691-0.174,3.451-0.325,5.27-0.452c-0.104,1.652-0.174,3.332-0.209,5.031c-1.828,0.043-3.605,0.095-5.322,0.155  C28.619,43.437,28.707,41.855,28.836,40.306z M34.212,39.847c1.7-0.118,3.45-0.214,5.241-0.285  c-0.066,1.714-0.112,3.458-0.135,5.224c-1.811,0.025-3.586,0.058-5.318,0.098C34.036,43.175,34.107,41.493,34.212,39.847z   M39.559,39.558c1.707-0.067,3.451-0.113,5.227-0.137c-0.023,1.744-0.039,3.519-0.047,5.317c-1.798,0.008-3.572,0.024-5.316,0.047  C39.445,43.009,39.49,41.265,39.559,39.558z M65.863,37.719c0.008-0.02,0.021-0.037,0.037-0.054c0.041,0.359,0.08,0.721,0.117,1.083  C65.895,38.382,65.779,37.93,65.863,37.719z M68.604,36.245c0.154-0.31,0.414,0.156,0.319,0.311c-0.095,0.154,1.025,0.93,1.025,0.93  s0.671,0.775,0.827,1.086c0.155,0.311-0.725,0.724-1.063,0.724c-0.339,0-1.471-0.414-1.678-0.242c-0.207,0.173-0.568-0.069-0.982,0  l-0.827,0.242c0,0-0.024-0.056-0.06-0.145c-0.051-0.521-0.104-1.04-0.164-1.554c0.401-0.165,1.465,0.121,1.465,0.121  s0.93,0.336,1.086,0C68.707,37.382,68.449,36.556,68.604,36.245z M69.482,42.604c0,0.155-0.725,1.086-0.982,1.552  c-0.211,0.381-1.119,0.554-1.981,0.518c-0.024-0.783-0.06-1.562-0.104-2.335c0.006,0.001,0.012,0.005,0.018,0.007  c0.362,0.104,2.534-0.206,3.051-0.362C70,41.829,69.482,42.45,69.482,42.604z M64.416,40.137c0.221,0.245,0.73,0.808,0.931,0.968  c0.229,0.184,0.62,0.935,0.958,1.175c0.049,0.79,0.084,1.586,0.109,2.388c-0.152-0.008-0.304-0.024-0.447-0.047  c-0.982-0.155-2.585-0.569-2.844-0.776c-0.197-0.158-0.274,0.681-0.299,1.085c-0.209-0.006-0.418-0.012-0.629-0.018  c-0.001-0.001-0.002-0.002-0.003-0.003c-0.138-0.202-0.601-0.111-1.1-0.521c-0.021-0.855-0.052-1.707-0.091-2.551  c0.088,0.007,0.164,0.006,0.208-0.009c0.155-0.051,0.827-1.086,0.827-1.086s1.345,1.035,1.604,1.19  c0.258,0.155,0.723,0.103,0.723,0.103s-0.051-1.241-0.154-1.448c-0.068-0.138,0-0.344,0.054-0.466  C64.314,40.126,64.365,40.132,64.416,40.137z M64.312,40.021l0.001-0.002l0.002,0.002C64.313,40.021,64.313,40.021,64.312,40.021z   M60.125,40.02c0.207,0.052,0.154,0.879,0.051,1.034c-0.103,0.155-0.051,0.517,0.156,0.621c0.124,0.063,0.361,0.125,0.564,0.152  c0.037,0.816,0.068,1.638,0.091,2.469c-0.029-0.028-0.058-0.056-0.087-0.087c-0.568-0.62-1.086-0.879-1.189-1.241  c-0.104-0.362,0-0.568-0.258-0.724c-0.26-0.154-2.379-0.258-2.533-0.258c-0.064,0-0.635,0.167-1.285,0.362  c-0.016-0.638-0.034-1.272-0.057-1.903c0.174-0.22,0.522-0.555,0.862-0.843c1.104,0.05,2.192,0.107,3.26,0.175  C59.889,39.9,60.055,40.002,60.125,40.02z M55.533,42.376c-0.907,0.274-1.924,0.59-1.924,0.59c-0.518,0.161,0.88-0.826,0.901-1.084  c0.021-0.247,0.733-0.962,0.968-1.298C55.5,41.178,55.518,41.775,55.533,42.376z M50.268,46.661  c-0.001-0.609-0.003-1.215-0.006-1.82c0.445,0.002,0.89,0.004,1.33,0.007C51.124,45.47,50.57,46.221,50.268,46.661z M62.818,45.033  c-0.004,0.064-0.005,0.105-0.005,0.105s-0.296-0.002-0.495-0.119C62.486,45.024,62.652,45.029,62.818,45.033z M56.561,39.501  c0.148-0.121,0.29-0.229,0.41-0.309c0.465-0.31,0.465,0,0.879,0s1.034,0,1.034,0s0.325,0.244,0.646,0.467  C58.553,39.598,57.563,39.546,56.561,39.501z M51.215,41.019c0.137,0.483,0.104,0.621,0.5,0.965c0.396,0.346,1.018,1.379,0.534,2  c-0.128,0.165-0.339,0.441-0.581,0.761c-0.467-0.002-0.936-0.005-1.406-0.007c-0.008-1.798-0.023-3.573-0.047-5.317  c0.479,0.007,0.954,0.014,1.428,0.023C51.414,40.092,51.091,40.584,51.215,41.019z M50.158,44.737  c-0.881-0.003-1.768-0.005-2.658-0.005c-0.892,0-1.777,0.002-2.658,0.005c0.008-1.823,0.023-3.596,0.047-5.317  c0.863-0.011,1.733-0.017,2.611-0.017c0.877,0,1.747,0.006,2.611,0.017C50.135,41.141,50.15,42.915,50.158,44.737z M44.835,47.5  c0-0.898,0.003-1.783,0.007-2.659c0.875-0.004,1.76-0.006,2.658-0.006c0.897,0,1.783,0.002,2.659,0.006  c0.002,0.651,0.004,1.308,0.005,1.972c-0.066,0.101-0.111,0.174-0.121,0.204c-0.068,0.207-1.24,2.206-1.24,2.206l-0.295,0.94  c-0.336,0-0.67,0-1.008,0c-0.898,0-1.783-0.002-2.658-0.005C44.838,49.283,44.835,48.397,44.835,47.5z M75.342,45.43  c0.056,0,0.102,0.016,0.172,0.045c-0.081-0.005-0.162-0.01-0.244-0.015C75.287,45.443,75.309,45.43,75.342,45.43z M55.799,34.988  c-0.1,0.15-0.271,0.318-0.459,0.475c-0.018-0.273-0.034-0.545-0.052-0.817c0.106-0.03,0.183-0.103,0.2-0.243  c0.008-0.054,0.012-0.112,0.016-0.168c0.203,0.014,0.407,0.028,0.611,0.042C56.034,34.513,55.933,34.787,55.799,34.988z   M50.109,39.316C49.244,39.306,48.375,39.3,47.5,39.3s-1.745,0.006-2.609,0.017c0.023-1.835,0.057-3.61,0.098-5.319  c0.83-0.017,1.667-0.027,2.512-0.027c0.844,0,1.681,0.01,2.512,0.027C50.053,35.707,50.086,37.481,50.109,39.316z M47.5,33.867  c-0.842,0-1.678,0.01-2.511,0.026c0.044-1.854,0.097-3.628,0.157-5.323c0.779-0.021,1.563-0.032,2.354-0.032  s1.574,0.011,2.354,0.032c0.061,1.694,0.112,3.469,0.156,5.323C49.178,33.877,48.341,33.867,47.5,33.867z M47.5,23.003  c-0.154,0-0.31,0.003-0.464,0.004c0.042-0.016,0.081-0.032,0.111-0.047c0.413-0.207,1.448-1.379,1.517-1.586  c0.068-0.206,0.344-1.585,0.344-1.792c0-0.132,0.17-0.432,0.363-0.723c0.088,1.3,0.17,2.695,0.245,4.178  C48.914,23.015,48.209,23.003,47.5,23.003z M42.598,25.441c0.345-0.207,1.93-1.378,2.344-1.724c0.074-0.063,0.182-0.12,0.31-0.174  c-0.077,1.574-0.146,3.22-0.206,4.927c-1.595,0.043-3.173,0.129-4.727,0.258c0.012-0.109,0.022-0.219,0.033-0.327  C40.987,27.512,42.317,25.609,42.598,25.441z M40.211,28.738c-0.037,0.003-0.072,0.006-0.109,0.01  c0.033-0.046,0.076-0.104,0.126-0.174C40.223,28.629,40.217,28.684,40.211,28.738z M39.883,28.873  c0.039,0.017,0.078,0.015,0.116-0.01c0.067-0.006,0.134-0.013,0.2-0.018c-0.174,1.701-0.325,3.46-0.451,5.267  c-1.725,0.11-3.418,0.257-5.074,0.439c0.199-1.776,0.438-3.497,0.713-5.154C36.852,29.184,38.353,29.009,39.883,28.873z   M34.563,34.563c-0.002,0-0.006,0-0.01,0.001c-0.125-0.344-0.228-0.615-0.228-0.615l-0.138-1.271l-0.621-1.792  c0,0-0.058-0.643-0.098-1.185c0.594-0.103,1.195-0.198,1.803-0.287C34.996,31.08,34.76,32.799,34.563,34.563z M25.984,32.335  c0,0-0.896,1.585-0.965,1.377c-0.069-0.206,0.481-1.447,0.206-1.999c-0.011-0.022-0.022-0.043-0.032-0.063  c0.588-0.181,1.189-0.355,1.798-0.521C26.66,31.568,25.984,32.335,25.984,32.335z M17.675,47.5c0-0.223,0.003-0.444,0.007-0.666  c0.212-0.019,0.396-0.066,0.513-0.162c0.413-0.344,0.552-0.827,1.171-0.482c0.621,0.344,0.76,0.552,1.172,1.034  c0.414,0.482,0.967,1.172,1.035,1.379s0.827,0.207,0.827,0s-0.276-2.068-0.276-2.068s0.116-0.631,0.253-1.117  c0.218-0.011,0.438-0.022,0.659-0.034c-0.021,0.702-0.031,1.407-0.031,2.117c0,0.708,0.011,1.413,0.031,2.116  c-1.93-0.099-3.711-0.208-5.33-0.325C17.686,48.696,17.675,48.099,17.675,47.5z M23.107,47.5c0-0.712,0.01-1.42,0.032-2.122  c1.667-0.085,3.448-0.161,5.328-0.228c-0.021,0.779-0.032,1.562-0.032,2.35c0,0.787,0.012,1.569,0.032,2.349  c-1.88-0.067-3.661-0.144-5.328-0.228C23.117,48.918,23.107,48.211,23.107,47.5z M28.539,47.5c0-0.791,0.012-1.574,0.033-2.354  c1.693-0.06,3.469-0.112,5.322-0.156c-0.018,0.832-0.027,1.669-0.027,2.51c0,0.84,0.01,1.677,0.027,2.51  c-1.854-0.044-3.629-0.097-5.322-0.157C28.551,49.074,28.539,48.29,28.539,47.5z M33.972,47.5c0-0.845,0.009-1.682,0.026-2.513  c1.709-0.04,3.484-0.073,5.318-0.098C39.306,45.755,39.3,46.624,39.3,47.5c0,0.874,0.006,1.744,0.017,2.61  c-1.834-0.025-3.609-0.058-5.318-0.098C33.98,49.181,33.972,48.343,33.972,47.5z M39.318,50.213  c0.022,1.765,0.068,3.509,0.135,5.224c-1.791-0.071-3.541-0.167-5.241-0.285c-0.104-1.646-0.176-3.327-0.212-5.037  C35.732,50.155,37.508,50.189,39.318,50.213z M39.563,55.545c1.715,0.067,3.458,0.113,5.225,0.136  c0.023,1.81,0.057,3.586,0.098,5.318c-1.71-0.036-3.391-0.108-5.037-0.212C39.729,59.088,39.635,57.338,39.563,55.545z   M39.559,55.441c-0.068-1.707-0.113-3.451-0.137-5.227c1.744,0.023,3.519,0.038,5.316,0.046c0.008,1.798,0.023,3.574,0.047,5.317  C43.01,55.554,41.266,55.508,39.559,55.441z M44.842,50.262c0.881,0.003,1.767,0.006,2.658,0.006c0.326,0,0.65,0,0.975-0.001  L48.25,50.98c0,0-0.137,1.896,0,2.24c0.104,0.258,0.859,1.668,1.236,2.366c-0.658,0.006-1.32,0.009-1.986,0.009  c-0.878,0-1.748-0.005-2.611-0.017C44.865,53.858,44.85,52.084,44.842,50.262z M70.389,49.692c-0.187-0.36-0.775-1.398-1.32-2.486  c0,0,0-0.775,0-1.034c0-0.259,0.645,0,0.645,0s0.545,0.724,0.701,1.034c0.154,0.311,0.879,1.603,0.981,1.81  c0.032,0.064,0.168,0.305,0.343,0.611C71.297,49.649,70.846,49.671,70.389,49.692z M76.584,47.292  c-0.276-0.207-1.035-0.827-1.172-1.172c-0.085-0.21-0.168-0.419-0.174-0.55c0.197,0.011,0.395,0.024,0.588,0.037  c0.262,0.102,0.695,0.246,1.479,0.436c0.012,0.474,0.02,0.948,0.02,1.425C77.039,47.458,76.736,47.408,76.584,47.292z M65.14,28.405  c-0.165,0.199-0.174,0.207-0.724,0.238c-0.043-0.176-0.086-0.351-0.131-0.525C64.953,28.303,65.265,28.254,65.14,28.405z   M62.797,30.231c0,0-0.104,0.724-0.38,1c-0.276,0.275-1.483,0.517-1.862,0.689c-0.109,0.05-0.266,0.085-0.432,0.11  c-0.047-0.343-0.096-0.687-0.146-1.026c0.269-0.123,0.694-0.352,0.819-0.6c0.075-0.149,0.195-0.457,0.303-0.775  c0.63,0.104,1.252,0.216,1.869,0.334C62.876,30.118,62.797,30.231,62.797,30.231z M58.506,29.134  c0.021-0.007,0.037-0.009,0.051-0.005c0.006,0.002,0.014,0.008,0.021,0.014C58.555,29.14,58.531,29.137,58.506,29.134z   M55.035,32.612c-0.01-0.011-0.018-0.025-0.029-0.037c-0.482-0.517-0.439-1.137-0.495-1.344c-0.056-0.206-0.108-0.896-0.22-1.103  s-0.664-0.483-0.664-0.483s-0.619,0.828-0.551,1.31c0.068,0.483,0.758,0.965,0.551,1.311c-0.154,0.258-0.393,1.171-0.5,1.73  c-0.298-0.013-0.598-0.026-0.897-0.038c0.138-0.093,0.253-0.182,0.294-0.246c0.139-0.206,0-1.309,0-1.309l-0.412-0.483  c-0.414,0.207-1.447,0.483-1.242,0.689c0.134,0.133,0.346,0.833,0.48,1.317c-0.41-0.011-0.822-0.022-1.236-0.031  c-0.043-1.828-0.095-3.604-0.154-5.322c1.604,0.046,3.184,0.132,4.734,0.262C54.818,30.06,54.934,31.32,55.035,32.612z   M49.955,28.471c-0.033-0.9-0.066-1.782-0.104-2.645c0.209-0.184,0.42-0.368,0.537-0.454c0.275-0.207,0.48-0.965,0.48-0.965  l-1.088-0.178c-0.017-0.365-0.033-0.727-0.052-1.085c1.452,0.047,2.884,0.141,4.293,0.278c0.245,1.676,0.466,3.449,0.659,5.307  C53.128,28.6,51.55,28.514,49.955,28.471z M49.725,23.04c-0.076-1.516-0.16-2.964-0.25-4.33c0.077-0.11,0.154-0.214,0.223-0.301  c0.139-0.171,0.241-0.394,0.327-0.677c1.019,0.045,2.032,0.119,3.036,0.219c0.346,1.643,0.662,3.438,0.945,5.361  C52.596,23.178,51.167,23.086,49.725,23.04z M39.357,27.854c0.047,0.139,0.22,0.686,0.411,0.921  c-1.478,0.133-2.935,0.302-4.364,0.508c0.309-1.838,0.66-3.597,1.053-5.263c0.863-0.147,1.738-0.275,2.623-0.387  c-0.094,0.418-0.184,0.827-0.239,1.119C38.668,25.648,39.289,27.647,39.357,27.854z M34.144,24.341  c0.009-0.05,0.021-0.098,0.044-0.142c0.09-0.18,0.325-0.067,0.479,0.034C34.491,24.268,34.318,24.305,34.144,24.341z M31.257,25.137  c0.052,0.06,0.13,0.138,0.222,0.225c-0.141,0.467-0.277,0.938-0.41,1.415c-0.281-0.204-0.672-0.439-0.672-0.439  s-0.896-0.138-1.104,0c-0.207,0.137-0.414,1.172-0.552,1.585c-0.138,0.413-0.827,0.551-0.827,0.551l0.346,1.172  c0,0-0.966,0.966-1.104,1.241c-0.013,0.024-0.033,0.058-0.059,0.095c-0.664,0.18-1.318,0.368-1.961,0.566  c-0.019-0.03-0.035-0.059-0.053-0.086c0.436-1.688,0.937-3.317,1.5-4.878C28.082,26.044,29.643,25.56,31.257,25.137z M24.996,31.333  c-0.201-0.275-0.447-0.493-0.942-1.136c-0.688-0.896-1.241-1.24-1.173-1.585c0.025-0.119,0.041-0.32,0.07-0.552  c1.119-0.51,2.282-0.985,3.486-1.424C25.895,28.15,25.414,29.719,24.996,31.333z M17.775,50.853  c-0.027-0.481-0.053-0.964-0.068-1.449c0.33,0.023,0.657,0.045,0.98,0.067c1.373,0.092,2.828,0.176,4.352,0.252  c0.01,0.284,0.02,0.568,0.033,0.851c-0.113-0.057-0.205-0.097-0.26-0.111c-0.275-0.069-1.516-0.413-1.516-0.413h-0.965v0.758  c0.205,0,1.654,0.551,1.654,0.551l1.143,0.551c0,0,0.006-0.002,0.018-0.005c0.044,0.704,0.1,1.404,0.167,2.1  c-1.743-0.257-3.379-0.541-4.894-0.85c0.082-0.376,0.395-0.9,0.395-0.9v-0.551C18.814,51.705,18.03,50.865,17.775,50.853z   M23.248,51.868c0.324-0.12,1.207-0.452,1.15-0.508c-0.051-0.051-0.752-0.484-1.221-0.731c-0.013-0.299-0.023-0.599-0.033-0.899  c1.693,0.085,3.475,0.16,5.326,0.225c0.044,1.595,0.129,3.173,0.258,4.727c-1.857-0.192-3.631-0.413-5.307-0.659  C23.354,53.31,23.295,52.592,23.248,51.868z M28.574,49.958c1.717,0.061,3.494,0.112,5.322,0.155c0.035,1.7,0.105,3.38,0.209,5.032  c-1.818-0.127-3.578-0.278-5.27-0.453C28.707,53.143,28.619,51.562,28.574,49.958z M34.112,55.251  c0.083,1.302,0.188,2.588,0.312,3.853c-0.01-0.008-0.019-0.016-0.03-0.023c-0.275-0.207-0.068-0.276-0.827-0.483  c-0.758-0.207-0.896-0.276-1.172-0.483c-0.275-0.206-1.447-1.034-1.654-1.241c-0.207-0.207-0.207-0.345-0.275-0.551  c-0.068-0.207-0.068-0.207-0.068-0.207s-0.896,0.207-1.241,0.207c-0.054,0-0.109-0.003-0.167-0.006  c-0.052-0.503-0.1-1.008-0.143-1.518C30.547,54.975,32.306,55.126,34.112,55.251z M41.219,65.767  c0.276-0.208,0.896-1.931,0.896-1.931s-1.861-1.479-2-1.566c-0.034-0.023-0.092-0.048-0.165-0.075  c-0.034-0.43-0.065-0.864-0.096-1.301c1.652,0.104,3.331,0.174,5.032,0.209c0.043,1.827,0.096,3.604,0.155,5.321  c-1.3-0.036-2.583-0.1-3.846-0.191C41.133,66.012,41.057,65.888,41.219,65.767z M47.5,61.029c-0.845,0-1.682-0.01-2.512-0.027  c-0.041-1.71-0.074-3.485-0.098-5.319c0.864,0.011,1.734,0.017,2.609,0.017c0.684,0,1.364-0.004,2.043-0.01  c0.095,0.177,0.154,0.288,0.154,0.288s0.174,0.144,0.404,0.333c-0.023,1.613-0.053,3.178-0.09,4.692  C49.181,61.019,48.344,61.029,47.5,61.029z M50.203,56.393c0.402,0.329,0.92,0.744,1.056,0.825c0.231,0.138,1.335,0.552,1.679,0.552  c0.346,0,1.793,0.138,2.139,0c0.061-0.025,0.154-0.062,0.264-0.104c-0.055,1.058-0.116,2.097-0.187,3.121  c-1.647,0.104-3.327,0.176-5.038,0.212C50.15,59.495,50.18,57.958,50.203,56.393z M55.447,57.626  c0.504-0.192,1.262-0.459,1.42-0.408c0.207,0.069,1.172,0.399,1.379,0.613s1.104,0.352,1.035,1.111  c-0.047,0.505-0.152,0.98,0.006,1.506c-1.316,0.133-2.66,0.243-4.029,0.332C55.33,59.744,55.393,58.691,55.447,57.626z   M71.654,51.86c-0.049-0.148-0.986-1.651-1.211-2.064c0.457-0.02,0.909-0.042,1.355-0.064c0.018,0.031,0.035,0.062,0.053,0.093  c-0.023,0.732-0.061,1.458-0.108,2.18C71.695,51.938,71.662,51.885,71.654,51.86z M71.949,49.995  c0.352,0.612,0.754,1.305,0.842,1.451c0.156,0.259,0.207,1.137,0,1.396c-0.152,0.19-0.67-0.349-0.951-0.708  C71.888,51.424,71.924,50.712,71.949,49.995z M78.789,47.43c0,0-0.621-0.069-0.896,0c-0.104,0.027-0.275,0.042-0.464,0.041  c-0.001-0.47-0.009-0.937-0.021-1.404c1.703,0.41,3.451,0.881,3.656,0.95c0.201,0.067,0.145-0.258,1.691,0.695  c-0.002,0.363-0.008,0.725-0.018,1.086c-0.851,0.097-1.794,0.192-2.822,0.282c0.07-0.085,0.113-0.134,0.113-0.134L78.789,47.43z   M82.857,47.776c0.564,0.353,0.958,0.624,1.252,0.852c-0.396,0.053-0.819,0.106-1.268,0.159  C82.851,48.45,82.855,48.113,82.857,47.776z M58.799,24.645c-0.045-0.202-0.092-0.406-0.139-0.605  c0.108,0.019,0.215,0.039,0.323,0.058C58.916,24.296,58.854,24.48,58.799,24.645z M58.732,24.844  c-0.059,0.17-0.106,0.308-0.143,0.391c-0.205,0.481-0.344,1.171-0.896,1.516c-0.551,0.345-1.24,0.896-1.24,0.896  s0.181,0.712,0.356,1.286c-0.669-0.073-1.344-0.138-2.021-0.194c-0.192-1.843-0.413-3.616-0.66-5.306  c1.5,0.148,2.973,0.344,4.414,0.588C58.607,24.292,58.67,24.567,58.732,24.844z M54.113,23.323c-0.242-1.63-0.51-3.182-0.801-4.642  c-0.049-0.243-0.098-0.483-0.147-0.719c1.285,0.13,2.556,0.305,3.81,0.523c0.563,1.666,1.08,3.479,1.541,5.417  C57.072,23.661,55.604,23.468,54.113,23.323z M53.142,17.855c-0.442-2.087-0.923-3.901-1.437-5.425  c0.957,0.085,1.902,0.201,2.838,0.343c0.867,1.596,1.67,3.478,2.394,5.601C55.688,18.158,54.422,17.984,53.142,17.855z   M51.668,12.321c-0.023-0.069-0.047-0.137-0.07-0.205c0.033-0.058,0.066-0.119,0.1-0.188c0.306-0.61,0.987-1.597,1.141-1.816  c0.566,0.736,1.115,1.585,1.639,2.539C53.549,12.514,52.611,12.403,51.668,12.321z M39.427,14.894l0.827,0.344  c0,0,0.069,0.965,0.069,1.517c0,0.292-0.04,0.837-0.076,1.286c-0.733,0.096-1.462,0.208-2.184,0.333  c0.426-1.249,0.879-2.415,1.356-3.489C39.424,14.89,39.427,14.894,39.427,14.894z M40.238,18.146  c-0.028,0.344-0.053,0.607-0.053,0.607s-0.483,1.862-0.346,2.068c0.139,0.208-0.344,1.035-0.344,1.035s-0.201,0.833-0.391,1.665  c-0.882,0.109-1.756,0.236-2.621,0.38c0.461-1.938,0.978-3.751,1.541-5.417C38.758,18.357,39.494,18.244,40.238,18.146z   M37.848,18.675c-0.547,1.64-1.041,3.396-1.479,5.248c-0.22,0.037-0.438,0.075-0.656,0.114l0.13-0.044l0.207-0.896l-0.758-1.792  l0.482-0.896c0,0-0.19-0.824-0.377-1.396c0.827-0.188,1.664-0.357,2.51-0.506C37.887,18.563,37.867,18.617,37.848,18.675z   M7.188,46.399c0.004-0.005,0.008-0.011,0.012-0.016c0.021,0.104,0.034,0.181,0.034,0.219c0,0.109,0.027,0.248,0.072,0.402  c-0.045,0.018-0.088,0.036-0.128,0.055C7.18,46.84,7.182,46.619,7.188,46.399z M7.178,47.94c0.163,0.074,0.365,0.146,0.604,0.217  c0.143,0.287,0.275,0.53,0.349,0.652c0.206,0.344,0.827,1.103,0.827,1.103s0.482-0.069,0.551,0c0.069,0.069-0.551-1.31-0.551-1.31  S8.931,48.53,8.889,48.42c0.273,0.054,0.564,0.106,0.875,0.158c0.334,0.555,0.674,1.125,0.778,1.335  c0.127,0.252,0.331,0.788,0.47,1.167c-1.906-0.767-3.221-1.601-3.824-2.48C7.182,48.381,7.18,48.16,7.178,47.94z M18.404,53.255  c0.092,0.019,0.184,0.038,0.277,0.057c1.459,0.292,3.012,0.56,4.643,0.801c0.084,0.875,0.186,1.743,0.305,2.603l-0.195,0.09  c0,0-0.827-0.207-1.24-0.415c-0.414-0.206-0.828-0.275-1.104-0.481s-0.414-0.69-0.414-0.69l-0.207-1.309  c0,0-1.723-0.206-1.998-0.413C18.408,53.451,18.394,53.362,18.404,53.255z M23.433,54.127c1.689,0.249,3.462,0.469,5.306,0.661  c0.043,0.508,0.09,1.015,0.141,1.519c-0.279-0.03-0.588-0.106-0.895-0.261c-0.415-0.207-1.242-0.276-1.449-0.276  s-0.965-0.275-1.24-0.138s-0.966,0.758-0.966,0.758l-0.598,0.277C23.615,55.831,23.517,54.984,23.433,54.127z M40.047,70.729  c0.17-0.042,0.471-0.137,0.677-0.204c0.048,0.35,0.097,0.698,0.147,1.042c-0.562-0.056-1.119-0.117-1.673-0.186  C39.498,71.098,39.871,70.774,40.047,70.729z M40.824,70.493c0.072-0.024,0.118-0.04,0.118-0.04s0.139-2.894,0.276-3.583  c0.045-0.222,0.031-0.392,0.004-0.529c1.26,0.089,2.535,0.153,3.822,0.188c0.066,1.852,0.141,3.632,0.226,5.327  c-1.452-0.047-2.885-0.142-4.293-0.277C40.925,71.221,40.874,70.859,40.824,70.493z M45.275,71.959  c0.076,1.524,0.16,2.979,0.252,4.353c0.021,0.324,0.045,0.651,0.068,0.981c-1.229-0.042-2.449-0.125-3.656-0.244  c-0.346-1.643-0.662-3.438-0.947-5.362C42.403,71.822,43.832,71.913,45.275,71.959z M45.383,71.963  c0.703,0.021,1.408,0.034,2.117,0.034s1.414-0.012,2.116-0.034c-0.099,1.932-0.208,3.712-0.325,5.332  c-0.595,0.019-1.191,0.029-1.791,0.029s-1.197-0.011-1.791-0.029C45.591,75.675,45.482,73.895,45.383,71.963z M49.473,76.312  c0.09-1.373,0.175-2.828,0.252-4.353c1.442-0.046,2.871-0.137,4.281-0.273c-0.283,1.925-0.6,3.719-0.945,5.362  c-1.207,0.12-2.427,0.202-3.656,0.244C49.428,76.963,49.451,76.635,49.473,76.312z M49.729,71.855  c0.085-1.695,0.159-3.475,0.226-5.327c1.595-0.043,3.173-0.13,4.727-0.258c-0.193,1.857-0.414,3.631-0.659,5.307  C52.613,71.714,51.182,71.809,49.729,71.855z M49.959,66.425c0.06-1.717,0.111-3.495,0.154-5.321  c1.699-0.036,3.379-0.105,5.032-0.209c-0.127,1.817-0.278,3.579-0.452,5.27C53.143,66.293,51.563,66.381,49.959,66.425z   M55.252,60.887c1.377-0.088,2.736-0.199,4.07-0.333c0.084,0.231,0.221,0.472,0.44,0.732c0.149,0.176,0.282,0.352,0.401,0.522  c-0.162,1.298-0.347,2.563-0.551,3.793c-1.566,0.228-3.174,0.413-4.814,0.552C54.976,64.454,55.127,62.694,55.252,60.887z   M60.257,61.944c0.428,0.637,0.661,1.168,0.815,1.271c0.207,0.138,0.138,1.172,0,1.93c-0.014,0.077-0.032,0.157-0.053,0.238  c-0.428,0.07-0.857,0.138-1.291,0.202C59.924,64.397,60.102,63.183,60.257,61.944z M77.143,52.005  c-0.027,0.352-0.059,0.705-0.094,1.055c-0.951,0.2-1.951,0.39-3,0.57C74.75,53.29,76.465,52.341,77.143,52.005z M77.252,51.952  c0.033-0.015,0.064-0.03,0.09-0.041c0.482-0.207,1.447-0.552,1.723-1.378c0.178-0.533,0.525-1.036,0.752-1.327  c1.004-0.087,1.99-0.183,2.917-0.29c-0.026,0.901-0.077,1.796-0.154,2.681c-1.539,0.52-3.361,1.002-5.425,1.439  C77.19,52.677,77.223,52.316,77.252,51.952z M82.838,48.905c0.486-0.057,0.953-0.115,1.397-0.177  c0.469,0.383,0.646,0.642,0.896,0.976c0.164,0.22,0.308,0.429,0.44,0.652c-0.796,0.419-1.762,0.821-2.883,1.205  C82.764,50.681,82.812,49.795,82.838,48.905z M60.176,21.511c-0.454,0.579-0.857,1.627-1.154,2.479  c-0.129-0.023-0.26-0.045-0.391-0.068c-0.438-1.852-0.932-3.608-1.479-5.248c-0.02-0.058-0.039-0.112-0.059-0.169  c1.393,0.245,2.764,0.543,4.106,0.894c0.159,0.357,0.315,0.723,0.468,1.092C61.172,20.67,60.616,20.951,60.176,21.511z   M57.056,18.394c-0.729-2.149-1.528-4.022-2.378-5.602c1.064,0.165,2.115,0.367,3.152,0.603c1.207,1.69,2.318,3.667,3.316,5.885  C59.808,18.932,58.442,18.637,57.056,18.394z M54.613,12.672c-0.55-1.009-1.122-1.896-1.711-2.656  c0.086-0.137,0.337-0.551,0.616-1.104c1.495,1.077,2.909,2.543,4.212,4.343C56.703,13.027,55.664,12.832,54.613,12.672z   M31.924,19.821c0.256-0.193,0.506-0.308,0.604-0.177C32.326,19.702,32.124,19.761,31.924,19.821z M7.194,48.777  c0.653,0.851,1.956,1.668,3.863,2.427c0.063,0.173,0.105,0.292,0.105,0.292s0.206,0.965,0.413,1.035  c0.096,0.032,0.484,0.225,0.877,0.424c0.059,0.509,0.123,1.017,0.198,1.521c-2.763-1.52-4.65-3.234-5.433-5.065  C7.209,49.201,7.201,48.989,7.194,48.777z M12.566,53.013c0.416,0.213,0.803,0.414,0.803,0.414s0.275-0.069,2.274,0.758  c1.024,0.425,1.83,0.757,2.467,1.075c0.079,0.563,0.167,1.121,0.263,1.677c-2.121-0.725-4.004-1.526-5.601-2.394  C12.695,54.036,12.627,53.526,12.566,53.013z M18.223,55.316c0.55,0.281,0.967,0.553,1.281,0.868  c0.689,0.689,2.068,1.31,2.275,1.447c0.207,0.138,0.758,0,0.758,0s0.344-0.62,0.414-0.275c0.045,0.222,0.346,0.729,0.555,1.063  c-1.791-0.437-3.469-0.919-5.021-1.444C18.39,56.425,18.302,55.873,18.223,55.316z M37.703,76.451  c0.035-0.059,0.07-0.146,0.105-0.247c0.014,0.039,0.025,0.081,0.039,0.121c0.02,0.057,0.039,0.112,0.059,0.169  c-0.068-0.013-0.138-0.024-0.206-0.036C37.701,76.456,37.701,76.453,37.703,76.451z M37.863,76.028  c0.141-0.492,0.254-1.162,0.254-1.162l0.275-1.724c0,0,0.206-1.172,0.414-1.379c0.059-0.059,0.164-0.165,0.291-0.286  c0.592,0.074,1.189,0.141,1.789,0.199c0.242,1.63,0.509,3.183,0.801,4.643c0.049,0.243,0.098,0.483,0.147,0.719  c-1.286-0.13-2.556-0.305-3.81-0.523C37.971,76.354,37.917,76.191,37.863,76.028z M41.857,77.144  c0.442,2.087,0.924,3.902,1.437,5.426c-0.956-0.085-1.902-0.2-2.837-0.342c-0.867-1.596-1.67-3.479-2.394-5.601  C39.312,76.841,40.578,77.015,41.857,77.144z M43.439,82.688c0.879,0.075,1.764,0.123,2.654,0.148  c0.262,2.265,0.582,4.147,0.967,4.984c-0.221-0.002-0.441-0.004-0.662-0.01C45.333,87.08,44.332,85.301,43.439,82.688z   M43.401,82.579c-0.519-1.539-1.002-3.361-1.438-5.424c1.201,0.119,2.416,0.2,3.64,0.241c0.13,1.807,0.289,3.672,0.479,5.338  C45.182,82.707,44.287,82.656,43.401,82.579z M45.717,77.398c0.592,0.019,1.186,0.029,1.783,0.029c0.597,0,1.19-0.011,1.783-0.029  c-0.149,2.05-0.313,3.839-0.484,5.339c-0.432,0.011-0.865,0.02-1.299,0.02c-0.436,0-0.867-0.009-1.299-0.02  C46.029,81.238,45.865,79.449,45.717,77.398z M49.396,77.396c1.225-0.041,2.439-0.123,3.641-0.241  c-0.437,2.063-0.92,3.885-1.439,5.424c-0.885,0.078-1.779,0.128-2.68,0.155C49.107,81.067,49.268,79.203,49.396,77.396z   M51.561,82.688c-0.893,2.613-1.894,4.391-2.96,5.123c-0.22,0.005-0.44,0.007-0.661,0.01c0.384-0.837,0.704-2.719,0.966-4.984  C49.795,82.812,50.682,82.763,51.561,82.688z M51.705,82.569c0.514-1.524,0.994-3.338,1.437-5.426  c1.28-0.129,2.546-0.303,3.795-0.518c-0.725,2.123-1.526,4.005-2.394,5.601C53.607,82.37,52.662,82.484,51.705,82.569z   M53.165,77.038c0.05-0.236,0.099-0.477,0.147-0.719c0.291-1.46,0.559-3.012,0.801-4.643c1.49-0.145,2.959-0.337,4.402-0.579  c-0.461,1.94-0.978,3.751-1.541,5.418C55.721,76.732,54.45,76.907,53.165,77.038z M54.129,71.567  c0.247-1.689,0.468-3.464,0.66-5.306c1.631-0.137,3.234-0.319,4.806-0.545c-0.308,1.837-0.659,3.597-1.052,5.263  C57.102,71.222,55.629,71.419,54.129,71.567z M59.71,65.699c0.429-0.062,0.854-0.128,1.278-0.197  c-0.189,0.674-0.535,1.368-0.535,1.368v0.413l0.275,1.517c0,0,0.301,0.881,0.541,1.655c-0.857,0.185-1.727,0.354-2.609,0.505  C59.056,69.281,59.406,67.522,59.71,65.699z M73.826,54.323c0,0-0.449-0.282-0.076-0.539c0.883-0.149,1.742-0.306,2.568-0.472  c0.244-0.048,0.482-0.097,0.72-0.147c-0.131,1.286-0.306,2.558-0.524,3.811c-0.508,0.171-1.029,0.339-1.564,0.502  c0.241-0.299,0.502-0.681,0.738-1.154c0.689-1.379,1.033-2.344,1.033-2.344L73.826,54.323z M77.145,53.141  c2.086-0.441,3.901-0.923,5.425-1.436c-0.085,0.957-0.2,1.902-0.343,2.837c-1.596,0.867-3.478,1.669-5.6,2.394  C76.842,55.688,77.016,54.422,77.145,53.141z M82.678,51.668c1.152-0.393,2.137-0.803,2.943-1.228  c0.184,0.316,0.354,0.668,0.545,1.126c0.015,0.037,0.028,0.069,0.043,0.104c-0.967,0.99-2.268,1.931-3.861,2.807  C82.486,53.548,82.596,52.612,82.678,51.668z M68.38,22.958c0,0-1.31-0.964-1.654-1.309c-0.112-0.112-0.239-0.178-0.387-0.228  c-0.077-0.154-0.153-0.308-0.232-0.46c0.698,0.264,1.386,0.543,2.062,0.836L68.38,22.958z M66.185,21.374  c-0.286-0.074-0.643-0.119-1.114-0.276c-0.826-0.276-1.379-0.966-1.379-0.966s-0.551-0.137-1.102,0.069  c-0.209,0.078-0.498,0.147-0.816,0.253c-0.141-0.342-0.286-0.683-0.434-1.017c1.574,0.416,3.111,0.905,4.604,1.463  C66.025,21.057,66.105,21.215,66.185,21.374z M61.285,19.314c-0.098-0.216-0.195-0.432-0.295-0.645  c-0.923-1.978-1.924-3.726-2.988-5.234c1.268,0.293,2.51,0.639,3.725,1.033c1.521,1.829,2.912,3.942,4.145,6.293  C64.384,20.21,62.853,19.727,61.285,19.314z M57.9,13.295c-1.352-1.891-2.805-3.396-4.328-4.487  c0.093-0.187,0.188-0.388,0.279-0.597c2.809,1.265,5.42,3.346,7.732,6.084C60.377,13.912,59.149,13.578,57.9,13.295z M35.566,12.068  c-0.414,0.207,0,1.31,0,1.31s0.05,0.114,0.127,0.258c-0.768,0.2-1.526,0.421-2.277,0.661c0.875-1.036,1.793-1.977,2.748-2.816  C36.069,11.633,35.863,11.919,35.566,12.068z M35.753,13.742c0.108,0.189,0.249,0.394,0.378,0.462  c0.073,0.039,0.191,0.044,0.328,0.022c-0.516,0.786-1.014,1.631-1.495,2.532c-0.02-0.044-0.047-0.091-0.087-0.142  c-0.275-0.345-1.034-0.483-1.034-0.483s-0.759-0.206-1.172,0c-0.413,0.208-1.448,1.241-1.585,1.448  c-0.139,0.207-0.483,1.242-0.483,1.242l-0.069,0.62l-0.965,1.104l-0.384,0.11c1.218-2.31,2.589-4.387,4.088-6.188  C34.087,14.204,34.914,13.962,35.753,13.742z M7.232,49.699c0.842,1.75,2.688,3.414,5.439,4.913c0.16,1.052,0.355,2.091,0.584,3.119  c-3.021-2.188-5.104-4.684-5.98-7.362C7.26,50.145,7.244,49.922,7.232,49.699z M12.792,54.677c1.581,0.851,3.453,1.648,5.603,2.378  c0.243,1.387,0.538,2.752,0.885,4.09c-2.219-0.997-4.194-2.109-5.885-3.316C13.159,56.794,12.957,55.743,12.792,54.677z   M18.506,57.094c0.057,0.019,0.111,0.039,0.17,0.058c1.54,0.514,3.185,0.98,4.914,1.399c0.07,0.111,0.119,0.184,0.119,0.184  l-1.033,2.068c0,0-0.276,0.483-0.069,0.827c0.098,0.164,0.164,0.56,0.208,0.931c-1.191-0.424-2.332-0.878-3.414-1.361  C19.049,59.857,18.752,58.486,18.506,57.094z M36.59,80.97c0.135,0.203,0.271,0.399,0.408,0.594  c-0.168-0.039-0.335-0.078-0.502-0.118C36.538,81.267,36.574,81.091,36.59,80.97z M36.609,80.787  c0.066-0.459,0.543-2.544,0.543-2.544s0.291-1.226,0.5-1.688c0.096,0.017,0.193,0.033,0.291,0.05  c0.73,2.149,1.527,4.022,2.379,5.603c-1.066-0.165-2.116-0.367-3.152-0.603C36.98,81.339,36.793,81.067,36.609,80.787z   M40.387,82.327c1.501,2.753,3.164,4.598,4.914,5.439c-0.225-0.012-0.447-0.026-0.67-0.042c-2.678-0.876-5.174-2.959-7.362-5.98  C38.296,81.972,39.336,82.168,40.387,82.327z M47.164,87.823c-0.328-0.703-0.652-2.407-0.951-4.981  c0.428,0.011,0.857,0.019,1.287,0.019s0.858-0.008,1.287-0.019c-0.299,2.574-0.625,4.279-0.951,4.981  c-0.113,0.001-0.225,0.004-0.336,0.004C47.387,87.827,47.275,87.824,47.164,87.823z M49.699,87.767  c1.75-0.842,3.413-2.686,4.914-5.439c1.051-0.159,2.09-0.355,3.117-0.583c-2.188,3.021-4.684,5.104-7.361,5.98  C50.146,87.74,49.922,87.754,49.699,87.767z M54.678,82.208c0.85-1.58,1.648-3.454,2.378-5.603c1.387-0.243,2.752-0.538,4.091-0.886  c-0.998,2.219-2.109,4.195-3.316,5.886C56.793,81.84,55.742,82.042,54.678,82.208z M57.094,76.494  c0.02-0.057,0.039-0.112,0.059-0.169c0.547-1.641,1.04-3.396,1.479-5.248c0.902-0.152,1.793-0.323,2.672-0.512  c0.142,0.461,0.252,0.866,0.252,0.993c0,0.228,0.303,1.151,0.547,1.87c-0.289,0.747-0.589,1.472-0.901,2.172  C59.857,75.951,58.486,76.248,57.094,76.494z M62.158,73.591c0.1,0.293,0.186,0.537,0.224,0.654  c0.077,0.228,0.361,0.581,0.603,0.853c-0.544,0.164-1.092,0.319-1.645,0.466C61.623,74.922,61.896,74.263,62.158,73.591z   M72.103,60.872c0.275-0.344,1.999-2.55,1.999-2.55s0.32-0.223,0.725-0.695c0.51-0.154,1.009-0.312,1.498-0.475  c0.058-0.019,0.113-0.039,0.17-0.058c-0.246,1.392-0.543,2.763-0.895,4.106c-1.209,0.539-2.488,1.043-3.832,1.51  C71.855,61.875,71.945,61.069,72.103,60.872z M76.605,57.055c2.148-0.729,4.021-1.528,5.603-2.378  c-0.165,1.066-0.368,2.117-0.603,3.152c-1.689,1.208-3.666,2.32-5.885,3.316C76.067,59.807,76.362,58.442,76.605,57.055z   M82.328,54.612c1.636-0.891,2.953-1.84,3.928-2.832c0.158,0.373,0.283,0.657,0.386,0.908c-1.104,1.804-2.768,3.499-4.898,5.042  C81.973,56.703,82.168,55.664,82.328,54.612z M72.156,20.201c0,0-0.261,0.62-0.468,0.62c-0.104,0-0.677,0.262-1.222,0.521  c-0.568-0.923-1.167-1.819-1.799-2.682c-0.534-0.727-1.084-1.424-1.649-2.089c1.964,0.935,3.83,2.004,5.581,3.196L72.156,20.201z   M68.584,18.722c0.629,0.857,1.225,1.748,1.789,2.666c-0.504,0.241-0.959,0.468-0.959,0.468l-1.311-0.414l0.043,0.233  c-0.693-0.299-1.396-0.584-2.111-0.852c-0.385-0.739-0.786-1.459-1.206-2.159c-0.907-1.511-1.872-2.886-2.888-4.126  c1.67,0.551,3.287,1.193,4.844,1.922C67.402,17.178,68.004,17.93,68.584,18.722z M61.797,14.364  c-2.396-2.878-5.065-4.99-7.899-6.257C53.943,8,53.986,7.893,54.029,7.783c4.604,1.396,8.891,4.271,12.553,8.446  C65.035,15.516,63.436,14.895,61.797,14.364z M36.092,11.378c-1,0.877-1.965,1.875-2.889,2.985c-0.886,0.287-1.76,0.601-2.619,0.941  c-0.35-0.091-0.795-0.146-0.877,0.141c-0.021,0.071-0.056,0.16-0.1,0.259c-0.4,0.169-0.797,0.343-1.191,0.524  c2.336-2.662,4.924-4.797,7.688-6.354l-0.537,1.504H36.092z M29.527,15.874c-0.279,0.573-0.779,1.373-0.992,1.64  c-0.275,0.344-1.311,1.448-1.449,1.654c-0.137,0.207-1.377,1.31-1.377,1.31s-0.303,0.075-0.545,0.059  c0.315-0.483,0.639-0.958,0.972-1.424l0.192-0.083c0,0,0.015-0.097,0.035-0.236c0.018-0.024,0.035-0.048,0.053-0.072  c0.579-0.792,1.18-1.543,1.799-2.261C28.648,16.258,29.086,16.063,29.527,15.874z M26.398,18.573c0.045-0.28,0.1-0.604,0.137-0.715  c0.03-0.089,0.229-0.427,0.462-0.802c0.325-0.165,0.653-0.327,0.984-0.484C27.438,17.209,26.91,17.877,26.398,18.573z M7.307,50.788  c0.941,2.546,2.975,4.958,5.988,7.113c0.283,1.248,0.617,2.476,1.001,3.683c-3.472-2.933-5.888-6.343-6.921-10.032  C7.35,51.298,7.328,51.043,7.307,50.788z M13.436,58.002c1.509,1.064,3.256,2.065,5.234,2.989c0.213,0.099,0.428,0.197,0.645,0.293  c0.412,1.568,0.896,3.099,1.447,4.587c-2.352-1.232-4.465-2.623-6.293-4.145C14.074,60.512,13.729,59.269,13.436,58.002z   M19.438,61.339c1.084,0.481,2.217,0.93,3.391,1.348c0.039,0.359,0.053,0.667,0.053,0.667s-0.068,0.413,0.414,1.034  c0.483,0.621,1.725,1.792,1.725,1.792s0.568,0.83,1.113,1.307c0.1,0.295,0.201,0.587,0.305,0.876  c-1.959-0.713-3.813-1.523-5.537-2.419C20.342,64.451,19.854,62.914,19.438,61.339z M26.307,67.627  c0.078,0.058,0.155,0.105,0.229,0.138c0.609,0.271,1.02,0.212,1.816,1.252c-0.598-0.192-1.188-0.393-1.768-0.602  C26.49,68.154,26.396,67.893,26.307,67.627z M28.471,69.181c0.775,1.067,1.176,2.13,1.443,3.064  c0.193,0.677,0.657,1.525,1.037,2.518c-0.64-0.209-1.271-0.431-1.895-0.664c-0.896-1.726-1.707-3.578-2.421-5.538  C27.238,68.777,27.852,68.984,28.471,69.181z M30.997,74.888c0.143,0.386,0.271,0.792,0.364,1.219  c0.344,1.585,0.688,2.551,0.965,3.102c0.055,0.109,0.113,0.23,0.176,0.358c-1.225-1.596-2.354-3.381-3.373-5.329  C29.744,74.466,30.367,74.683,30.997,74.888z M36.531,82.931c0,0-0.276-0.621-0.207-0.827c0.031-0.093,0.09-0.313,0.146-0.545  c0.208,0.051,0.418,0.098,0.628,0.146c2.155,3.014,4.567,5.047,7.112,5.988c-0.256-0.021-0.51-0.043-0.764-0.068  c-2.109-0.591-4.13-1.633-6.02-3.069c0-0.397,0-1.003,0-1.003L36.531,82.931z M50.788,87.693c2.546-0.941,4.957-2.975,7.112-5.988  c1.249-0.284,2.477-0.617,3.684-1.001c-2.933,3.471-6.343,5.888-10.031,6.921C51.299,87.65,51.043,87.671,50.788,87.693z   M58.002,81.564c1.064-1.509,2.065-3.257,2.988-5.235c0.1-0.213,0.197-0.429,0.295-0.646c0.597-0.157,1.189-0.325,1.775-0.501  c0.161,0.177,0.287,0.303,0.287,0.303s1.654-0.344,2.137-0.689c0.043-0.03,0.098-0.076,0.157-0.127  c-1.175,2.178-2.487,4.145-3.915,5.862C60.512,80.925,59.27,81.27,58.002,81.564z M71.551,66.386c0.207-0.344-0.207-1.034,0-1.999  c0.082-0.385,0.143-0.968,0.203-1.552c1.324-0.459,2.596-0.958,3.809-1.496c-0.416,1.575-0.905,3.112-1.463,4.605  c-1.219,0.632-2.5,1.223-3.84,1.765C70.725,67.275,71.416,66.612,71.551,66.386z M81.705,57.901  c2.199-1.575,3.877-3.285,4.986-5.085c0.064,0.162,0.117,0.314,0.163,0.474c0.012,0.039,0.039,0.119,0.079,0.23  c-1.248,2.936-3.385,5.66-6.23,8.064C81.088,60.377,81.422,59.148,81.705,57.901z M72.86,19.512l-0.172,0.168  c-1.855-1.268-3.821-2.385-5.876-3.345c-3.666-4.235-7.965-7.16-12.59-8.6c0.902,0.152,1.795,0.334,2.676,0.545  c6.261,2,11.827,5.946,16.176,11.239C73.004,19.539,72.931,19.54,72.86,19.512z M36.255,9.448l-0.1,0.28  c-2.872,1.603-5.558,3.821-7.968,6.607c-0.357,0.166-0.711,0.339-1.062,0.515c0.27-0.429,0.55-0.856,0.649-0.99  c0.209-0.276,0.76-1.448,0.484-1.241c-0.275,0.207-1.379,0.689-1.379,0.689s-0.276-0.178-0.515-0.358  c3.007-2.606,6.388-4.672,10.028-6.07C36.313,9.227,36.255,9.448,36.255,9.448z M7.443,52.167c1.111,3.478,3.463,6.752,6.921,9.63  c0.53,1.639,1.152,3.238,1.864,4.786c-4.359-3.824-7.299-8.329-8.621-13.164C7.547,53.003,7.492,52.585,7.443,52.167z   M14.539,61.941c1.238,1.015,2.615,1.981,4.125,2.888c0.699,0.419,1.42,0.821,2.16,1.206c0.709,1.889,1.527,3.706,2.453,5.436  c-1.599-0.872-3.121-1.835-4.555-2.887c-0.792-0.581-1.545-1.181-2.262-1.799C15.732,65.228,15.09,63.611,14.539,61.941z   M20.961,66.106c1.742,0.898,3.592,1.702,5.529,2.403c0.701,1.938,1.504,3.787,2.402,5.529c-1.895-0.716-3.718-1.543-5.451-2.479  C22.505,69.825,21.678,68.002,20.961,66.106z M28.965,74.175c0.385,0.74,0.787,1.46,1.205,2.16c0.811,1.348,1.666,2.587,2.563,3.72  c0.057,0.12,0.109,0.239,0.162,0.351c-1.611-0.539-3.175-1.163-4.68-1.868c-0.619-0.717-1.22-1.47-1.799-2.261  c-1.053-1.434-2.016-2.957-2.888-4.555C25.259,72.648,27.075,73.467,28.965,74.175z M32.963,80.557  c0.08,0.182,0.148,0.338,0.19,0.444c0.138,0.345,0.827,1.379,0.827,1.379l0.827,1.516l0.71,0.887  c-2.544-1.523-4.932-3.54-7.102-6.012C29.89,79.447,31.406,80.044,32.963,80.557z M37.428,84.861c0-0.032,0-0.086,0-0.153  c1.723,1.294,3.533,2.25,5.404,2.848c-0.419-0.049-0.836-0.103-1.251-0.164c-1.087-0.296-2.155-0.677-3.204-1.135  C38.259,85.721,37.428,85.053,37.428,84.861z M52.168,87.556c3.477-1.111,6.751-3.462,9.629-6.921  c1.639-0.531,3.238-1.152,4.785-1.864c-3.824,4.358-8.328,7.299-13.164,8.621C53.004,87.453,52.586,87.507,52.168,87.556z   M61.941,80.46c1.016-1.239,1.98-2.615,2.888-4.125c0.37-0.617,0.726-1.251,1.067-1.898c0.107-0.103,0.225-0.217,0.348-0.341  c1.813-0.689,3.561-1.482,5.227-2.374c-0.871,1.598-1.835,3.121-2.887,4.555c-0.58,0.792-1.182,1.544-1.799,2.261  C65.229,79.268,63.611,79.909,61.941,80.46z M66.418,73.919c0.619-0.633,1.31-1.392,1.479-1.604c0.276-0.345,1.035-1.724,1.242-1.93  c0.205-0.207,0.275-0.965,0.275-0.965l0.414-1.311c0,0,0.074-0.068,0.189-0.175c1.395-0.556,2.736-1.165,4.02-1.829  c-0.078,0.209-0.157,0.419-0.24,0.626c-0.172,0.167-0.318,0.294-0.385,0.328c-0.207,0.103-1.034,2.068-1.256,2.327v0.775  c0,0,0.035,0.027,0.09,0.067c-0.223,0.448-0.451,0.892-0.688,1.329C69.92,72.443,68.201,73.23,66.418,73.919z M72.33,70.292  c0.166,0.123,0.42,0.311,0.643,0.467c-0.412,0.244-0.828,0.482-1.251,0.713C71.93,71.083,72.133,70.689,72.33,70.292z   M74.136,69.852c0.155-0.982,0.827-2.119,0.88-2.274c0.041-0.125,0.453-1.533,0.529-2.287c0.266-0.151,0.529-0.305,0.79-0.461  c1.511-0.907,2.886-1.873,4.126-2.888c-0.551,1.669-1.193,3.287-1.922,4.843c-0.718,0.619-1.47,1.219-2.262,1.8  c-0.707,0.519-1.437,1.015-2.185,1.491C74.108,70.004,74.123,69.931,74.136,69.852z M80.635,61.795  c2.955-2.458,5.102-5.204,6.355-8.121c0.051,0.136,0.113,0.299,0.186,0.485c-1.41,4.555-4.27,8.794-8.404,12.423  C79.482,65.035,80.104,63.435,80.635,61.795z M73.619,19.099c0,0-0.193,0.256-0.426,0.376c-0.226-0.275-0.454-0.549-0.688-0.817  c-4.033-4.655-8.871-8.043-14.151-10c5.682,1.59,10.858,4.396,15.235,8.118l-0.315,1.082L73.619,19.099z M36.428,8.737  c-3.641,1.379-7.066,3.444-10.162,6.135c-0.174-0.138-0.297-0.26-0.213-0.279c0.207-0.044,0.482-0.251,0.345-0.527  c-0.054-0.105-0.229-0.346-0.46-0.631c3.219-2.045,6.746-3.647,10.494-4.719C36.43,8.724,36.429,8.73,36.428,8.737z M7.736,54.223  c1.439,4.624,4.364,8.924,8.6,12.589c1.164,2.495,2.563,4.857,4.18,7.052c-5.792-4.456-10.111-10.32-12.234-16.966  C8.07,56.018,7.889,55.125,7.736,54.223z M16.571,67.018c0.665,0.565,1.362,1.116,2.089,1.649c1.479,1.085,3.053,2.074,4.705,2.967  c0.893,1.652,1.883,3.226,2.967,4.704c0.533,0.727,1.084,1.424,1.649,2.088c-2.55-1.212-4.935-2.654-7.115-4.294  C19.227,71.952,17.785,69.568,16.571,67.018z M28.188,78.664c2.277,2.631,4.799,4.756,7.492,6.333  c0.127,0.188,0.5,0.716,0.783,0.829c0.344,0.138,1.378,0.551,1.378,0.551s0.552,0.552,0.552,0c0,0,0-0.001,0-0.001  c0.783,0.34,1.578,0.636,2.384,0.888c-0.902-0.152-1.794-0.333-2.676-0.545c-6.646-2.124-12.51-6.443-16.966-12.236  C23.33,76.101,25.692,77.499,28.188,78.664z M54.223,87.264c4.625-1.44,8.924-4.366,12.59-8.6c2.494-1.165,4.857-2.563,7.053-4.182  c-4.457,5.793-10.32,10.112-16.967,12.236C56.018,86.93,55.125,87.111,54.223,87.264z M67.019,78.427  c0.565-0.665,1.115-1.362,1.649-2.088c1.084-1.479,2.074-3.052,2.967-4.704c0.484-0.262,0.961-0.532,1.431-0.811  c0.165,0.114,0.3,0.202,0.347,0.217c0.133,0.045,0.458-0.142,0.645-0.821c0.783-0.494,1.545-1.011,2.281-1.552  c0.729-0.534,1.425-1.084,2.09-1.65c-1.213,2.55-2.654,4.935-4.295,7.116C71.953,75.773,69.568,77.215,67.019,78.427z   M78.664,66.812c4.207-3.642,7.121-7.909,8.57-12.499c0.004,0.009,0.008,0.017,0.011,0.026c-0.148,0.862-0.324,1.715-0.526,2.558  c-2.123,6.647-6.443,12.51-12.234,16.967C76.102,71.669,77.5,69.307,78.664,66.812z M8.658,58.354  c1.955,5.28,5.346,10.117,10,14.152c0.687,0.595,1.395,1.167,2.121,1.714c0.548,0.727,1.118,1.435,1.714,2.122  c4.034,4.655,8.872,8.044,14.152,10C23.119,82.557,12.442,71.88,8.658,58.354z M58.354,86.341c5.279-1.956,10.118-5.345,14.151-10  c0.596-0.688,1.167-1.396,1.715-2.122c0.726-0.547,1.434-1.119,2.121-1.714c4.655-4.035,8.045-8.873,10-14.153  C82.558,71.879,71.881,82.557,58.354,86.341z"/><text x="0" y="110" fill="#000000" font-size="5px" font-weight="bold" font-family="'Helvetica Neue', Helvetica, Arial-Unicode, Arial, Sans-serif">Created by Guilherme Furtado</text><text x="0" y="115" fill="#000000" font-size="5px" font-weight="bold" font-family="'Helvetica Neue', Helvetica, Arial-Unicode, Arial, Sans-serif">from the Noun Project</text></svg>